# xmcd
#
# Track frame offsets:
#	150
#	14988
#	24436
#	37553
#	49818
#	59932
#	71899
#	84070
#	98463
#	111294
#
# Disc length: 1662 seconds
#
# Revision: 1
# Processed by: cddbd v1.5.2PL0 Copyright (c) Steve Scherf et al.
# Submitted via: audiograbber 1.83.01
#
DISCID=7e067c0a
DTITLE=Gene Watson - Old Loves Never Die
DYEAR=1981
DGENRE=Country
TTITLE0=Old Loves Never Die
TTITLE1=The Girl I Use To Run Around On
TTITLE2=Roads And Other Reasons
TTITLE3='Til Melinda Comes Around
TTITLE4=Speak Softly (You're Talking To My Heart)
TTITLE5=Nothing About Her Reminds Me Of You
TTITLE6=Fourteen Carat Mind
TTITLE7=Lonely Me
TTITLE8=The Sun Never Comes Up Again
TTITLE9=Missing You Just Started Hittin' Home
EXTD=
EXTT0=
EXTT1=
EXTT2=
EXTT3=
EXTT4=
EXTT5=
EXTT6=
EXTT7=
EXTT8=
EXTT9=
PLAYORDER=
